<svg width="17" height="17" viewBox="0 0 17 17" fill="none" xmlns="http://www.w3.org/2000/svg">
<path d="M11.1852 15.2127C11.1853 15.6643 11.0147 16.0993 10.7077 16.4304C10.4006 16.7616 9.97969 16.9644 9.52935 16.9983L9.3951 17.0028H7.60504C7.15343 17.0029 6.71845 16.8323 6.38731 16.5253C6.05616 16.2182 5.85333 15.7973 5.81946 15.347L5.81498 15.2127H11.1852ZM8.50007 -0.00280762C10.1245 -0.00283442 11.6855 0.628093 12.8537 1.75689C14.0219 2.88568 14.706 4.42409 14.7617 6.0476L14.7653 6.2624V9.6313L16.396 12.8928C16.4672 13.0351 16.5028 13.1925 16.4998 13.3516C16.4968 13.5107 16.4553 13.6667 16.3789 13.8062C16.3024 13.9458 16.1933 14.0647 16.0608 14.1528C15.9283 14.241 15.7765 14.2957 15.6182 14.3123L15.5153 14.3177H1.48482C1.32566 14.3177 1.16885 14.2792 1.02784 14.2053C0.886832 14.1315 0.765827 14.0246 0.675195 13.8937C0.584563 13.7629 0.527005 13.612 0.507455 13.4541C0.487905 13.2961 0.506945 13.1358 0.562943 12.9868L0.604114 12.8928L2.23486 9.6313V6.2624C2.23486 4.60077 2.89494 3.00718 4.0699 1.83223C5.24485 0.657275 6.83843 -0.00280762 8.50007 -0.00280762Z" fill="#53565A"/>
</svg>
