<svg width="18" height="18" viewBox="0 0 18 18" fill="none" xmlns="http://www.w3.org/2000/svg">
<path d="M12 18C11.45 18 10.9793 17.8043 10.588 17.413C10.1967 17.0217 10.0007 16.5507 10 16V2C10 1.45 10.196 0.979333 10.588 0.588C10.98 0.196667 11.4507 0.000666667 12 0H16C16.55 0 17.021 0.196 17.413 0.588C17.805 0.98 18.0007 1.45067 18 2V16C18 16.55 17.8043 17.021 17.413 17.413C17.0217 17.805 16.5507 18.0007 16 18H12ZM2 18C1.45 18 0.979333 17.8043 0.588 17.413C0.196667 17.0217 0.000666667 16.5507 0 16V2C0 1.45 0.196 0.979333 0.588 0.588C0.98 0.196667 1.45067 0.000666667 2 0H6C6.55 0 7.021 0.196 7.413 0.588C7.805 0.98 8.00067 1.45067 8 2V16C8 16.55 7.80433 17.021 7.413 17.413C7.02167 17.805 6.55067 18.0007 6 18H2Z" fill="#53565A"/>
</svg>
