<svg width="18" height="18" viewBox="0 0 18 18" fill="none" xmlns="http://www.w3.org/2000/svg">
<path d="M9.75451 14.3574C9.85518 14.4577 9.93505 14.5769 9.98956 14.7082C10.0441 14.8394 10.0721 14.9802 10.0721 15.1223C10.0721 15.2644 10.0441 15.4051 9.98956 15.5364C9.93505 15.6677 9.85518 15.7869 9.75451 15.8872L9.21999 16.4217C8.20711 17.4346 6.83336 18.0036 5.40094 18.0036C3.96852 18.0036 2.59477 17.4346 1.5819 16.4217C0.569026 15.4088 0 14.0351 0 12.6027C0 11.1702 0.569026 9.79649 1.5819 8.78362L3.75238 6.61403C4.72558 5.63843 6.03497 5.07186 7.41235 5.03037C8.78973 4.98888 10.1309 5.47561 11.161 6.39086C11.2674 6.4854 11.3541 6.59996 11.4161 6.72801C11.4782 6.85605 11.5145 6.99506 11.5228 7.13712C11.5312 7.27917 11.5115 7.42148 11.4648 7.55591C11.4182 7.69035 11.3455 7.81429 11.251 7.92064C11.1565 8.027 11.0419 8.11369 10.9138 8.17577C10.7858 8.23785 10.6468 8.27411 10.5047 8.28246C10.3627 8.29082 10.2204 8.27111 10.0859 8.22447C9.9515 8.17783 9.82757 8.10517 9.72121 8.01063C9.10347 7.462 8.29945 7.17013 7.47362 7.19472C6.6478 7.21931 5.86257 7.5585 5.27856 8.14291L3.10988 10.3098C2.50225 10.9174 2.16089 11.7415 2.16089 12.6009C2.16089 13.4602 2.50225 14.2843 3.10988 14.8919C3.71751 15.4996 4.54163 15.8409 5.40094 15.8409C6.26026 15.8409 7.08438 15.4996 7.69201 14.8919L8.22653 14.3574C8.32682 14.257 8.44591 14.1774 8.577 14.123C8.70809 14.0687 8.84861 14.0407 8.99052 14.0407C9.13243 14.0407 9.27294 14.0687 9.40403 14.123C9.53513 14.1774 9.65422 14.257 9.75451 14.3574ZM16.4207 1.57927C15.407 0.567951 14.0336 0 12.6017 0C11.1698 0 9.79635 0.567951 8.78265 1.57927L8.24813 2.11379C8.04527 2.31665 7.9313 2.59179 7.9313 2.87868C7.9313 3.16557 8.04527 3.4407 8.24813 3.64357C8.45099 3.84643 8.72613 3.96039 9.01302 3.96039C9.29991 3.96039 9.57504 3.84643 9.77791 3.64357L10.3124 3.10904C10.9201 2.50141 11.7442 2.16005 12.6035 2.16005C13.4628 2.16005 14.2869 2.50141 14.8946 3.10904C15.5022 3.71667 15.8435 4.54079 15.8435 5.40011C15.8435 6.25943 15.5022 7.08355 14.8946 7.69117L12.725 9.86166C12.1405 10.4458 11.3548 10.7845 10.5288 10.8084C9.70272 10.8324 8.89877 10.5397 8.28142 9.99034C8.17507 9.8958 8.05113 9.82314 7.9167 9.7765C7.78226 9.72985 7.63995 9.71015 7.4979 9.71851C7.35584 9.72686 7.21683 9.76312 7.08879 9.8252C6.96074 9.88728 6.84618 9.97397 6.75165 10.0803C6.65711 10.1867 6.58444 10.3106 6.5378 10.4451C6.49116 10.5795 6.47146 10.7218 6.47981 10.8639C6.48817 11.0059 6.52442 11.1449 6.5865 11.273C6.64858 11.401 6.73528 11.5156 6.84163 11.6101C7.87107 12.5252 9.21129 13.0122 10.588 12.9715C11.9648 12.9309 13.2739 12.3656 14.2476 11.3914L16.418 9.22185C17.4305 8.2084 17.9995 6.83458 18 5.40202C18.0005 3.96945 17.4325 2.59523 16.4207 1.58107V1.57927Z" fill="#53565A"/>
</svg>
