<svg width="66" height="22" viewBox="0 0 66 22" fill="none" xmlns="http://www.w3.org/2000/svg">
<path d="M0.96 21.14C0.605333 21.14 0.362667 21.1307 0.232 21.112C0.362667 20.0293 0.932 17.2853 1.94 12.88C2.96667 8.456 3.48 5.656 3.48 4.48C3.48 4.256 3.34933 3.96667 3.088 3.612C2.82667 3.23867 2.56533 2.93067 2.304 2.688L1.94 2.296L2.024 1.848C4.58133 1.36267 7.288 1.12 10.144 1.12C13.5787 1.12 15.296 2.47333 15.296 5.18C15.296 6.50533 14.96 7.71867 14.288 8.82C13.6347 9.90267 12.608 10.752 11.208 11.368C12.2533 14.8587 13.1493 17.1173 13.896 18.144C14.232 18.5733 14.4933 18.788 14.68 18.788C15.016 18.788 15.5387 18.62 16.248 18.284L16.584 18.116L17.228 19.152C16.5373 19.7867 15.7347 20.3093 14.82 20.72C13.924 21.1307 13.0747 21.336 12.272 21.336C11.488 21.336 10.8347 21 10.312 20.328C9.808 19.6373 9.34133 18.6293 8.912 17.304C8.50133 15.9787 8.08133 14.28 7.652 12.208C7.05467 12.2453 6.59733 12.264 6.28 12.264C5.328 16.352 4.80533 19.1147 4.712 20.552C3.90933 20.944 2.65867 21.14 0.96 21.14ZM7.372 10.36C8.492 10.36 9.36933 9.86533 10.004 8.876C10.6573 7.868 10.984 6.67333 10.984 5.292C10.984 4.564 10.8533 3.976 10.592 3.528C10.3307 3.08 9.93867 2.856 9.416 2.856C9.192 2.856 8.92133 2.89333 8.604 2.968C8.30533 3.024 8.156 3.06133 8.156 3.08C7.85733 5.00267 7.372 7.42933 6.7 10.36H7.372Z" fill="#17B8BD"/>
<path d="M23.3548 10.332C23.3548 11.116 23.1028 12.4693 22.5988 14.392C22.0948 16.296 21.8428 17.5467 21.8428 18.144C21.8428 18.7227 21.9268 19.012 22.0948 19.012C22.2068 19.012 22.6361 18.8347 23.3828 18.48L23.7188 18.312L24.1948 19.292C24.0268 19.4413 23.8028 19.628 23.5228 19.852C23.2428 20.076 22.7201 20.384 21.9548 20.776C21.1894 21.1493 20.4801 21.336 19.8268 21.336C19.1734 21.336 18.6601 21.14 18.2868 20.748C17.9134 20.3373 17.7268 19.796 17.7268 19.124C17.7268 18.4333 17.9601 17.22 18.4268 15.484C18.8934 13.7293 19.1268 12.5907 19.1268 12.068C19.1268 11.284 18.8841 10.5467 18.3988 9.856L18.1468 9.52L18.1748 9.156C19.1641 8.876 20.7694 8.736 22.9908 8.736C23.2334 9.016 23.3548 9.548 23.3548 10.332ZM20.1628 5.684C19.7894 5.31067 19.6028 4.816 19.6028 4.2C19.6028 3.584 19.8548 3.04267 20.3588 2.576C20.8814 2.10933 21.4788 1.876 22.1508 1.876C22.8228 1.876 23.3454 2.06267 23.7188 2.436C24.0921 2.80933 24.2788 3.304 24.2788 3.92C24.2788 4.51733 24.0081 5.04933 23.4668 5.516C22.9441 5.98267 22.3561 6.216 21.7028 6.216C21.0494 6.216 20.5361 6.03867 20.1628 5.684ZM27.9037 8.596C28.725 8.596 29.3317 8.764 29.7237 9.1C30.1343 9.436 30.3397 10.1267 30.3397 11.172C30.3397 11.732 30.1717 12.88 29.8357 14.616C29.4997 16.3333 29.3317 17.3787 29.3317 17.752C29.3317 18.4987 29.481 18.872 29.7797 18.872C30.489 18.872 31.2637 18.3493 32.1037 17.304C32.9623 16.24 33.4103 15.3533 33.4477 14.644L31.5437 12.516C31.6183 11.7133 31.8143 10.9853 32.1317 10.332C32.449 9.67867 32.7477 9.22133 33.0277 8.96L33.4197 8.596C34.2223 8.596 34.829 8.81067 35.2397 9.24C35.6503 9.66933 35.8557 10.1733 35.8557 10.752C35.8557 12.2267 35.4917 13.7853 34.7637 15.428C34.0357 17.0707 33.065 18.4707 31.8517 19.628C30.6383 20.7667 29.4063 21.336 28.1557 21.336C27.3717 21.336 26.765 21.0933 26.3357 20.608C25.925 20.1227 25.7197 19.488 25.7197 18.704C25.7197 17.9013 25.7757 16.828 25.8877 15.484C26.0183 14.14 26.0837 12.8053 26.0837 11.48C26.0837 11.1813 25.9717 10.8267 25.7477 10.416C25.5423 10.0053 25.3277 9.67867 25.1037 9.436L25.1877 9.1C26.1957 8.764 27.101 8.596 27.9037 8.596ZM44.5512 9.408C44.5885 9.37067 44.6912 9.128 44.8592 8.68C45.7365 8.68 46.9125 8.94133 48.3872 9.464C47.9205 11.0133 47.5472 12.6373 47.2672 14.336C46.9872 16.016 46.8472 17.22 46.8472 17.948C46.8472 18.6573 46.9219 19.012 47.0712 19.012C47.1832 19.012 47.5939 18.8347 48.3032 18.48L48.6392 18.312L49.1432 19.292C48.9752 19.4413 48.7512 19.628 48.4712 19.852C48.2099 20.076 47.7059 20.384 46.9592 20.776C46.2125 21.1493 45.5405 21.336 44.9432 21.336C43.7859 21.336 43.1139 20.8133 42.9272 19.768C41.7325 20.8133 40.6499 21.336 39.6792 21.336C38.7272 21.336 37.9152 20.9627 37.2432 20.216C36.5899 19.4693 36.2632 18.2933 36.2632 16.688C36.2632 14.1867 36.7765 12.2173 37.8032 10.78C38.8299 9.324 40.0712 8.596 41.5272 8.596C42.5725 8.596 43.5805 8.86667 44.5512 9.408ZM41.3592 18.956C41.8072 18.956 42.3112 18.7787 42.8712 18.424C43.0019 15.792 43.4405 13.188 44.1872 10.612C43.6272 10.3693 43.1512 10.248 42.7592 10.248C42.0872 10.248 41.5085 10.9107 41.0232 12.236C40.5565 13.5427 40.3232 14.9893 40.3232 16.576C40.3232 18.1627 40.6685 18.956 41.3592 18.956ZM51.8163 21.336C51.1816 21.336 50.6496 21.1213 50.2203 20.692C49.8096 20.2627 49.6043 19.6653 49.6043 18.9C49.6043 18.116 50.0616 15.6427 50.9763 11.48C51.9096 7.29867 52.3763 4.284 52.3763 2.436L52.2083 1.204C53.6643 0.699999 55.027 0.447999 56.2963 0.447999C56.483 0.709333 56.5763 1.16667 56.5763 1.82C56.5763 3.31333 56.1003 6.20667 55.1483 10.5C54.215 14.7747 53.7483 17.2667 53.7483 17.976C53.7483 18.6667 53.8323 19.012 54.0003 19.012L55.9603 18.312L56.4643 19.292C55.8296 19.796 55.055 20.2627 54.1403 20.692C53.2443 21.1213 52.4696 21.336 51.8163 21.336ZM65.7498 17.332C65.7498 18.508 65.2271 19.4693 64.1818 20.216C63.1551 20.9627 61.9791 21.336 60.6538 21.336C59.3285 21.336 58.2738 21.056 57.4898 20.496C56.7245 19.936 56.3418 19.4413 56.3418 19.012C56.3418 18.7507 56.6685 18.3307 57.3218 17.752C57.9751 17.1547 58.5258 16.7907 58.9738 16.66C59.9071 17.3507 60.6725 18.4427 61.2698 19.936C61.9605 19.88 62.3058 19.5533 62.3058 18.956C62.3058 18.0973 61.5498 16.884 60.0378 15.316C58.5258 13.7293 57.7698 12.4693 57.7698 11.536C57.7698 10.6027 58.1898 9.884 59.0298 9.38C59.8698 8.85733 60.8778 8.596 62.0538 8.596C63.2485 8.596 64.1445 8.81067 64.7418 9.24C65.3391 9.65067 65.6378 10.22 65.6378 10.948C65.6378 11.6573 65.0685 12.6467 63.9298 13.916C64.0605 14.0467 64.2285 14.224 64.4338 14.448C64.6391 14.6533 64.9098 15.0547 65.2458 15.652C65.5818 16.2493 65.7498 16.8093 65.7498 17.332ZM63.0618 12.936C63.8458 12.264 64.2378 11.6013 64.2378 10.948C64.2378 10.2947 63.7898 9.968 62.8938 9.968C62.4645 9.968 62.1098 10.0613 61.8298 10.248C61.5498 10.416 61.4098 10.612 61.4098 10.836C61.4098 11.2467 61.8205 11.8253 62.6418 12.572L63.0618 12.936Z" fill="white"/>
</svg>
