<svg width="17" height="17" viewBox="0 0 17 17" fill="none" xmlns="http://www.w3.org/2000/svg">
<path d="M6.08011 2.89681C7.15703 0.965603 7.69507 0 8.5 0C9.30493 0 9.84297 0.965603 10.9199 2.89681L11.1987 3.39661C11.5047 3.94571 11.6577 4.22026 11.8957 4.40131C12.1337 4.58236 12.4312 4.64951 13.0261 4.78381L13.5667 4.90621C15.6577 5.37967 16.7023 5.61597 16.9514 6.41582C17.1995 7.21482 16.4873 8.04867 15.0618 9.71553L14.693 10.1465C14.2884 10.6199 14.0852 10.8571 13.9943 11.1495C13.9033 11.4427 13.9339 11.7589 13.9951 12.3905L14.0512 12.9659C14.2663 15.1904 14.3742 16.3022 13.7231 16.7961C13.072 17.2908 12.0929 16.8394 10.1362 15.9384L9.62877 15.7055C9.07289 15.4488 8.79494 15.3213 8.5 15.3213C8.20506 15.3213 7.92711 15.4488 7.37123 15.7055L6.86464 15.9384C4.90713 16.8394 3.92796 17.2899 3.27772 16.7969C2.62579 16.3022 2.73374 15.1904 2.94878 12.9659L3.00488 12.3913C3.06608 11.7589 3.09668 11.4427 3.00488 11.1503C2.91478 10.8571 2.71164 10.6199 2.30705 10.1473L1.93815 9.71553C0.512738 8.04952 -0.199546 7.21567 0.0486486 6.41582C0.297693 5.61597 1.34317 5.37882 3.43412 4.90621L3.97471 4.78381C4.56884 4.64951 4.86549 4.58236 5.10433 4.40131C5.34232 4.22026 5.49532 3.94571 5.80131 3.39661L6.08011 2.89681Z" fill="#53565A"/>
</svg>
